<?xml version="1.0" encoding="iso-8859-1"?>
<!-- Generator: Adobe Illustrator 19.0.0, SVG Export Plug-In . SVG Version: 6.00 Build 0)  -->
<svg version="1.1" id="Layer_1" xmlns="http://www.w3.org/2000/svg" xmlns:xlink="http://www.w3.org/1999/xlink" x="0px" y="0px"
	 viewBox="0 0 511.999 511.999" style="enable-background:new 0 0 511.999 511.999;" xml:space="preserve">
<polyline style="fill:#CBBBA0;" points="56.8,169.459 256,10.098 455.2,169.459 "/>
<polygon style="fill:#5EBAE7;" points="415.359,504.113 96.64,504.113 96.64,169.459 256,41.971 415.359,169.459 "/>
<polyline style="fill:#36A9E1;" points="256,41.971 415.359,169.459 415.359,504.113 248.032,504.113 "/>
<rect x="208.187" y="320.851" style="fill:#D5C9B3;" width="95.619" height="183.268"/>
<rect x="255.997" y="320.851" style="fill:#CBBBA0;" width="47.81" height="183.268"/>
<g>
	<path style="fill:#1D1D1B;" d="M423.245,511.999H88.754v-346.33L256,31.873l167.246,133.796v346.33H423.245z M104.526,496.227
		h302.948V173.249L256,52.069l-151.475,121.18V496.227z"/>
	<polygon style="fill:#1D1D1B;" points="311.693,488.177 295.922,488.177 295.922,328.735 216.077,328.735 216.077,488.177 
		200.306,488.177 200.306,312.963 311.693,312.963 	"/>
	<polygon style="fill:#1D1D1B;" points="256,0 152.334,82.932 152.334,49.938 136.562,49.938 136.562,95.55 51.873,163.301 
		61.726,175.616 256,20.197 450.273,175.616 460.126,163.301 	"/>
	<rect x="232.181" y="384.59" style="fill:#1D1D1B;" width="15.772" height="31.87"/>
</g>
<rect x="248.111" y="129.623" style="fill:#FFFFFF;" width="15.772" height="71.709"/>
<g>
</g>
<g>
</g>
<g>
</g>
<g>
</g>
<g>
</g>
<g>
</g>
<g>
</g>
<g>
</g>
<g>
</g>
<g>
</g>
<g>
</g>
<g>
</g>
<g>
</g>
<g>
</g>
<g>
</g>
</svg>
